<mxfile host="app.diagrams.net" modified="2021-10-13T02:24:36.530Z" agent="5.0 (Windows NT 10.0; Win64; x64) AppleWebKit/537.36 (KHTML, like Gecko) Chrome/94.0.4606.81 Safari/537.36" etag="a9-xBb0FAL0j7hYqvkUW" version="15.4.3" type="github">
  <diagram id="MnmV1ebnaz_2FY6fDYHy" name="Page-1">
    <mxGraphModel dx="1240" dy="643" grid="1" gridSize="10" guides="1" tooltips="1" connect="1" arrows="1" fold="1" page="1" pageScale="1" pageWidth="850" pageHeight="1100" math="0" shadow="0">
      <root>
        <mxCell id="0" />
        <mxCell id="1" parent="0" />
        <mxCell id="sQsE81p7CudlIg1sm5Xv-70" value="" style="rounded=1;whiteSpace=wrap;html=1;fontSize=12;" vertex="1" parent="1">
          <mxGeometry x="550" y="70" width="460" height="630" as="geometry" />
        </mxCell>
        <mxCell id="sQsE81p7CudlIg1sm5Xv-32" value="" style="rounded=1;whiteSpace=wrap;html=1;" vertex="1" parent="1">
          <mxGeometry x="50" y="40" width="420" height="670" as="geometry" />
        </mxCell>
        <mxCell id="sQsE81p7CudlIg1sm5Xv-1" value="First Factor Authentication&amp;nbsp;" style="rounded=1;whiteSpace=wrap;html=1;" vertex="1" parent="1">
          <mxGeometry x="90" y="90" width="120" height="40" as="geometry" />
        </mxCell>
        <mxCell id="sQsE81p7CudlIg1sm5Xv-2" value="Username,Password" style="ellipse;whiteSpace=wrap;html=1;" vertex="1" parent="1">
          <mxGeometry x="170" y="140" width="120" height="40" as="geometry" />
        </mxCell>
        <mxCell id="sQsE81p7CudlIg1sm5Xv-4" value="SFA Received?" style="rhombus;whiteSpace=wrap;html=1;" vertex="1" parent="1">
          <mxGeometry x="180" y="215" width="100" height="60" as="geometry" />
        </mxCell>
        <mxCell id="sQsE81p7CudlIg1sm5Xv-5" value="" style="endArrow=classic;html=1;rounded=0;edgeStyle=orthogonalEdgeStyle;exitX=0.5;exitY=0;exitDx=0;exitDy=0;entryX=0.5;entryY=1;entryDx=0;entryDy=0;" edge="1" parent="1" source="sQsE81p7CudlIg1sm5Xv-4" target="sQsE81p7CudlIg1sm5Xv-2">
          <mxGeometry width="50" height="50" relative="1" as="geometry">
            <mxPoint x="300" y="290" as="sourcePoint" />
            <mxPoint x="350" y="240" as="targetPoint" />
          </mxGeometry>
        </mxCell>
        <mxCell id="sQsE81p7CudlIg1sm5Xv-6" value="False" style="text;html=1;strokeColor=none;fillColor=none;align=center;verticalAlign=middle;whiteSpace=wrap;rounded=0;" vertex="1" parent="1">
          <mxGeometry x="220" y="180" width="60" height="30" as="geometry" />
        </mxCell>
        <mxCell id="sQsE81p7CudlIg1sm5Xv-7" value="RTT=Get_RTT()+30&lt;br&gt;&lt;span style=&quot;font-size: 10px&quot;&gt;T&lt;/span&gt;&lt;sub&gt;c&lt;/sub&gt;&amp;nbsp;= CurrentTime()/RTT" style="rounded=0;whiteSpace=wrap;html=1;" vertex="1" parent="1">
          <mxGeometry x="70" y="310" width="140" height="50" as="geometry" />
        </mxCell>
        <mxCell id="sQsE81p7CudlIg1sm5Xv-8" value="" style="endArrow=classic;html=1;rounded=0;edgeStyle=orthogonalEdgeStyle;exitX=0;exitY=0.5;exitDx=0;exitDy=0;" edge="1" parent="1" source="sQsE81p7CudlIg1sm5Xv-4">
          <mxGeometry width="50" height="50" relative="1" as="geometry">
            <mxPoint x="300" y="280" as="sourcePoint" />
            <mxPoint x="140" y="300" as="targetPoint" />
          </mxGeometry>
        </mxCell>
        <mxCell id="sQsE81p7CudlIg1sm5Xv-9" value="True" style="text;html=1;strokeColor=none;fillColor=none;align=center;verticalAlign=middle;whiteSpace=wrap;rounded=0;" vertex="1" parent="1">
          <mxGeometry x="130" y="215" width="60" height="30" as="geometry" />
        </mxCell>
        <mxCell id="sQsE81p7CudlIg1sm5Xv-10" value="Second Factor Authentication" style="rounded=1;whiteSpace=wrap;html=1;" vertex="1" parent="1">
          <mxGeometry x="230" y="290" width="120" height="40" as="geometry" />
        </mxCell>
        <mxCell id="sQsE81p7CudlIg1sm5Xv-12" value="SAC=TOTP(K&lt;sub&gt;ID&lt;/sub&gt;,T&lt;sub&gt;c&lt;/sub&gt;)" style="rounded=0;whiteSpace=wrap;html=1;" vertex="1" parent="1">
          <mxGeometry x="80" y="400" width="120" height="40" as="geometry" />
        </mxCell>
        <mxCell id="sQsE81p7CudlIg1sm5Xv-13" value="" style="endArrow=classic;html=1;rounded=0;edgeStyle=orthogonalEdgeStyle;exitX=0.5;exitY=1;exitDx=0;exitDy=0;entryX=0.5;entryY=0;entryDx=0;entryDy=0;" edge="1" parent="1" source="sQsE81p7CudlIg1sm5Xv-7" target="sQsE81p7CudlIg1sm5Xv-12">
          <mxGeometry width="50" height="50" relative="1" as="geometry">
            <mxPoint x="300" y="430" as="sourcePoint" />
            <mxPoint x="350" y="380" as="targetPoint" />
          </mxGeometry>
        </mxCell>
        <mxCell id="sQsE81p7CudlIg1sm5Xv-14" value="XOR&amp;nbsp; &amp;nbsp;" style="triangle;whiteSpace=wrap;html=1;" vertex="1" parent="1">
          <mxGeometry x="240" y="400" width="40" height="45" as="geometry" />
        </mxCell>
        <mxCell id="sQsE81p7CudlIg1sm5Xv-15" value="Salt" style="ellipse;whiteSpace=wrap;html=1;aspect=fixed;" vertex="1" parent="1">
          <mxGeometry x="220" y="340" width="50" height="50" as="geometry" />
        </mxCell>
        <mxCell id="sQsE81p7CudlIg1sm5Xv-16" value="" style="endArrow=classic;html=1;rounded=0;edgeStyle=orthogonalEdgeStyle;exitX=0.5;exitY=1;exitDx=0;exitDy=0;entryX=0.154;entryY=0.111;entryDx=0;entryDy=0;entryPerimeter=0;" edge="1" parent="1" source="sQsE81p7CudlIg1sm5Xv-15" target="sQsE81p7CudlIg1sm5Xv-14">
          <mxGeometry width="50" height="50" relative="1" as="geometry">
            <mxPoint x="300" y="430" as="sourcePoint" />
            <mxPoint x="245" y="400" as="targetPoint" />
          </mxGeometry>
        </mxCell>
        <mxCell id="sQsE81p7CudlIg1sm5Xv-17" value="" style="endArrow=classic;html=1;rounded=0;edgeStyle=orthogonalEdgeStyle;exitX=1;exitY=0.5;exitDx=0;exitDy=0;" edge="1" parent="1" source="sQsE81p7CudlIg1sm5Xv-12">
          <mxGeometry width="50" height="50" relative="1" as="geometry">
            <mxPoint x="300" y="430" as="sourcePoint" />
            <mxPoint x="240" y="420" as="targetPoint" />
          </mxGeometry>
        </mxCell>
        <mxCell id="sQsE81p7CudlIg1sm5Xv-19" value="RHM=H&lt;sub&gt;1&lt;/sub&gt;(K&lt;sub&gt;ID&lt;/sub&gt;,SensoryData)" style="rounded=0;whiteSpace=wrap;html=1;" vertex="1" parent="1">
          <mxGeometry x="210" y="470" width="169" height="40" as="geometry" />
        </mxCell>
        <mxCell id="sQsE81p7CudlIg1sm5Xv-20" value="" style="endArrow=classic;html=1;rounded=0;edgeStyle=orthogonalEdgeStyle;exitX=1;exitY=0.5;exitDx=0;exitDy=0;entryX=0.539;entryY=0.021;entryDx=0;entryDy=0;entryPerimeter=0;" edge="1" parent="1" source="sQsE81p7CudlIg1sm5Xv-14" target="sQsE81p7CudlIg1sm5Xv-19">
          <mxGeometry width="50" height="50" relative="1" as="geometry">
            <mxPoint x="300" y="430" as="sourcePoint" />
            <mxPoint x="350" y="380" as="targetPoint" />
          </mxGeometry>
        </mxCell>
        <mxCell id="sQsE81p7CudlIg1sm5Xv-21" value="HM==RHM?" style="rhombus;whiteSpace=wrap;html=1;" vertex="1" parent="1">
          <mxGeometry x="244.5" y="540" width="100" height="60" as="geometry" />
        </mxCell>
        <mxCell id="sQsE81p7CudlIg1sm5Xv-22" value="" style="endArrow=classic;html=1;rounded=0;edgeStyle=orthogonalEdgeStyle;exitX=0.5;exitY=1;exitDx=0;exitDy=0;entryX=0.5;entryY=0;entryDx=0;entryDy=0;" edge="1" parent="1" source="sQsE81p7CudlIg1sm5Xv-19" target="sQsE81p7CudlIg1sm5Xv-21">
          <mxGeometry width="50" height="50" relative="1" as="geometry">
            <mxPoint x="300" y="600" as="sourcePoint" />
            <mxPoint x="350" y="550" as="targetPoint" />
          </mxGeometry>
        </mxCell>
        <mxCell id="sQsE81p7CudlIg1sm5Xv-23" value="Valid Data" style="rounded=0;whiteSpace=wrap;html=1;" vertex="1" parent="1">
          <mxGeometry x="170" y="610" width="80" height="30" as="geometry" />
        </mxCell>
        <mxCell id="sQsE81p7CudlIg1sm5Xv-24" value="Invalid Data" style="rounded=0;whiteSpace=wrap;html=1;" vertex="1" parent="1">
          <mxGeometry x="340" y="610" width="90" height="30" as="geometry" />
        </mxCell>
        <mxCell id="sQsE81p7CudlIg1sm5Xv-25" value="" style="endArrow=classic;html=1;rounded=0;edgeStyle=orthogonalEdgeStyle;exitX=0;exitY=0.5;exitDx=0;exitDy=0;entryX=0.5;entryY=0;entryDx=0;entryDy=0;" edge="1" parent="1" source="sQsE81p7CudlIg1sm5Xv-21" target="sQsE81p7CudlIg1sm5Xv-23">
          <mxGeometry width="50" height="50" relative="1" as="geometry">
            <mxPoint x="300" y="600" as="sourcePoint" />
            <mxPoint x="350" y="550" as="targetPoint" />
          </mxGeometry>
        </mxCell>
        <mxCell id="sQsE81p7CudlIg1sm5Xv-26" value="" style="endArrow=classic;html=1;rounded=0;edgeStyle=orthogonalEdgeStyle;exitX=1;exitY=0.5;exitDx=0;exitDy=0;entryX=0.5;entryY=0;entryDx=0;entryDy=0;" edge="1" parent="1" source="sQsE81p7CudlIg1sm5Xv-21" target="sQsE81p7CudlIg1sm5Xv-24">
          <mxGeometry width="50" height="50" relative="1" as="geometry">
            <mxPoint x="300" y="600" as="sourcePoint" />
            <mxPoint x="350" y="550" as="targetPoint" />
          </mxGeometry>
        </mxCell>
        <mxCell id="sQsE81p7CudlIg1sm5Xv-27" value="True" style="text;html=1;strokeColor=none;fillColor=none;align=center;verticalAlign=middle;whiteSpace=wrap;rounded=0;" vertex="1" parent="1">
          <mxGeometry x="200" y="540" width="60" height="30" as="geometry" />
        </mxCell>
        <mxCell id="sQsE81p7CudlIg1sm5Xv-28" value="False" style="text;html=1;strokeColor=none;fillColor=none;align=center;verticalAlign=middle;whiteSpace=wrap;rounded=0;" vertex="1" parent="1">
          <mxGeometry x="340" y="540" width="60" height="30" as="geometry" />
        </mxCell>
        <mxCell id="sQsE81p7CudlIg1sm5Xv-29" value="END" style="shape=process;whiteSpace=wrap;html=1;backgroundOutline=1;" vertex="1" parent="1">
          <mxGeometry x="249.5" y="660" width="90" height="30" as="geometry" />
        </mxCell>
        <mxCell id="sQsE81p7CudlIg1sm5Xv-30" value="" style="endArrow=classic;html=1;rounded=0;edgeStyle=orthogonalEdgeStyle;exitX=0.5;exitY=1;exitDx=0;exitDy=0;entryX=0;entryY=0.5;entryDx=0;entryDy=0;" edge="1" parent="1" source="sQsE81p7CudlIg1sm5Xv-23" target="sQsE81p7CudlIg1sm5Xv-29">
          <mxGeometry width="50" height="50" relative="1" as="geometry">
            <mxPoint x="300" y="600" as="sourcePoint" />
            <mxPoint x="350" y="550" as="targetPoint" />
          </mxGeometry>
        </mxCell>
        <mxCell id="sQsE81p7CudlIg1sm5Xv-31" value="" style="endArrow=classic;html=1;rounded=0;edgeStyle=orthogonalEdgeStyle;exitX=0.5;exitY=1;exitDx=0;exitDy=0;entryX=1;entryY=0.5;entryDx=0;entryDy=0;" edge="1" parent="1" source="sQsE81p7CudlIg1sm5Xv-24" target="sQsE81p7CudlIg1sm5Xv-29">
          <mxGeometry width="50" height="50" relative="1" as="geometry">
            <mxPoint x="300" y="600" as="sourcePoint" />
            <mxPoint x="350" y="550" as="targetPoint" />
          </mxGeometry>
        </mxCell>
        <mxCell id="sQsE81p7CudlIg1sm5Xv-33" value="&lt;font style=&quot;font-size: 16px&quot;&gt;Remote IoT Device&lt;/font&gt;" style="text;html=1;strokeColor=none;fillColor=none;align=center;verticalAlign=middle;whiteSpace=wrap;rounded=0;" vertex="1" parent="1">
          <mxGeometry x="175" y="50" width="170" height="30" as="geometry" />
        </mxCell>
        <mxCell id="sQsE81p7CudlIg1sm5Xv-34" value="&lt;font style=&quot;font-size: 12px&quot;&gt;Processing Authentication Request&lt;/font&gt;" style="rounded=0;whiteSpace=wrap;html=1;fontSize=16;" vertex="1" parent="1">
          <mxGeometry x="580" y="130" width="100" height="60" as="geometry" />
        </mxCell>
        <mxCell id="sQsE81p7CudlIg1sm5Xv-36" value="Server&lt;br&gt;" style="shape=cylinder3;whiteSpace=wrap;html=1;boundedLbl=1;backgroundOutline=1;size=6.666666666666671;fontSize=12;" vertex="1" parent="1">
          <mxGeometry x="800" y="130" width="60" height="60" as="geometry" />
        </mxCell>
        <mxCell id="sQsE81p7CudlIg1sm5Xv-37" value="" style="endArrow=classic;html=1;rounded=0;fontSize=12;edgeStyle=orthogonalEdgeStyle;exitX=1;exitY=0.5;exitDx=0;exitDy=0;entryX=0;entryY=0.5;entryDx=0;entryDy=0;entryPerimeter=0;" edge="1" parent="1" source="sQsE81p7CudlIg1sm5Xv-34" target="sQsE81p7CudlIg1sm5Xv-36">
          <mxGeometry width="50" height="50" relative="1" as="geometry">
            <mxPoint x="490" y="200" as="sourcePoint" />
            <mxPoint x="540" y="150" as="targetPoint" />
          </mxGeometry>
        </mxCell>
        <mxCell id="sQsE81p7CudlIg1sm5Xv-38" value="Search for user" style="text;html=1;strokeColor=none;fillColor=none;align=center;verticalAlign=middle;whiteSpace=wrap;rounded=0;fontSize=12;" vertex="1" parent="1">
          <mxGeometry x="700" y="130" width="90" height="30" as="geometry" />
        </mxCell>
        <mxCell id="sQsE81p7CudlIg1sm5Xv-39" value="User available?" style="rhombus;whiteSpace=wrap;html=1;fontSize=12;" vertex="1" parent="1">
          <mxGeometry x="770" y="220" width="120" height="50" as="geometry" />
        </mxCell>
        <mxCell id="sQsE81p7CudlIg1sm5Xv-40" value="" style="endArrow=classic;html=1;rounded=0;fontSize=12;edgeStyle=orthogonalEdgeStyle;exitX=0.5;exitY=1;exitDx=0;exitDy=0;exitPerimeter=0;entryX=0.5;entryY=0;entryDx=0;entryDy=0;" edge="1" parent="1" source="sQsE81p7CudlIg1sm5Xv-36" target="sQsE81p7CudlIg1sm5Xv-39">
          <mxGeometry width="50" height="50" relative="1" as="geometry">
            <mxPoint x="560" y="270" as="sourcePoint" />
            <mxPoint x="610" y="220" as="targetPoint" />
          </mxGeometry>
        </mxCell>
        <mxCell id="sQsE81p7CudlIg1sm5Xv-41" value="" style="endArrow=classic;html=1;rounded=0;fontSize=12;edgeStyle=orthogonalEdgeStyle;exitX=1;exitY=0.5;exitDx=0;exitDy=0;entryX=0;entryY=0.5;entryDx=0;entryDy=0;" edge="1" parent="1" source="sQsE81p7CudlIg1sm5Xv-2" target="sQsE81p7CudlIg1sm5Xv-34">
          <mxGeometry width="50" height="50" relative="1" as="geometry">
            <mxPoint x="530" y="270" as="sourcePoint" />
            <mxPoint x="580" y="220" as="targetPoint" />
          </mxGeometry>
        </mxCell>
        <mxCell id="sQsE81p7CudlIg1sm5Xv-42" value="Authentication Sucess" style="rounded=0;whiteSpace=wrap;html=1;fontSize=12;" vertex="1" parent="1">
          <mxGeometry x="620" y="225" width="90" height="40" as="geometry" />
        </mxCell>
        <mxCell id="sQsE81p7CudlIg1sm5Xv-43" value="" style="endArrow=classic;html=1;rounded=0;fontSize=12;edgeStyle=orthogonalEdgeStyle;exitX=0;exitY=0.5;exitDx=0;exitDy=0;entryX=1;entryY=0.5;entryDx=0;entryDy=0;" edge="1" parent="1" source="sQsE81p7CudlIg1sm5Xv-39" target="sQsE81p7CudlIg1sm5Xv-42">
          <mxGeometry width="50" height="50" relative="1" as="geometry">
            <mxPoint x="560" y="270" as="sourcePoint" />
            <mxPoint x="610" y="220" as="targetPoint" />
          </mxGeometry>
        </mxCell>
        <mxCell id="sQsE81p7CudlIg1sm5Xv-44" value="" style="endArrow=classic;html=1;rounded=0;fontSize=12;edgeStyle=orthogonalEdgeStyle;exitX=0;exitY=0.5;exitDx=0;exitDy=0;entryX=1;entryY=0.5;entryDx=0;entryDy=0;" edge="1" parent="1" source="sQsE81p7CudlIg1sm5Xv-42" target="sQsE81p7CudlIg1sm5Xv-4">
          <mxGeometry width="50" height="50" relative="1" as="geometry">
            <mxPoint x="530" y="270" as="sourcePoint" />
            <mxPoint x="580" y="220" as="targetPoint" />
          </mxGeometry>
        </mxCell>
        <mxCell id="sQsE81p7CudlIg1sm5Xv-45" value="Authentication Failed" style="rounded=0;whiteSpace=wrap;html=1;fontSize=12;" vertex="1" parent="1">
          <mxGeometry x="775" y="305" width="110" height="35" as="geometry" />
        </mxCell>
        <mxCell id="sQsE81p7CudlIg1sm5Xv-46" value="" style="endArrow=classic;html=1;rounded=0;fontSize=12;edgeStyle=orthogonalEdgeStyle;exitX=0.5;exitY=1;exitDx=0;exitDy=0;entryX=0.5;entryY=0;entryDx=0;entryDy=0;" edge="1" parent="1" source="sQsE81p7CudlIg1sm5Xv-39" target="sQsE81p7CudlIg1sm5Xv-45">
          <mxGeometry width="50" height="50" relative="1" as="geometry">
            <mxPoint x="630" y="350" as="sourcePoint" />
            <mxPoint x="680" y="300" as="targetPoint" />
          </mxGeometry>
        </mxCell>
        <mxCell id="sQsE81p7CudlIg1sm5Xv-47" value="True" style="text;html=1;strokeColor=none;fillColor=none;align=center;verticalAlign=middle;whiteSpace=wrap;rounded=0;fontSize=12;" vertex="1" parent="1">
          <mxGeometry x="715" y="220" width="60" height="30" as="geometry" />
        </mxCell>
        <mxCell id="sQsE81p7CudlIg1sm5Xv-48" value="False" style="text;html=1;strokeColor=none;fillColor=none;align=center;verticalAlign=middle;whiteSpace=wrap;rounded=0;fontSize=12;" vertex="1" parent="1">
          <mxGeometry x="820" y="270" width="60" height="30" as="geometry" />
        </mxCell>
        <mxCell id="sQsE81p7CudlIg1sm5Xv-49" value="RTT=Get_RTT()+30&lt;br&gt;TimeWait(RTT)&lt;br&gt;T&lt;sub&gt;c&lt;/sub&gt;=int(CurrentTime()/RTT)" style="rounded=0;whiteSpace=wrap;html=1;fontSize=12;" vertex="1" parent="1">
          <mxGeometry x="587.5" y="300" width="155" height="60" as="geometry" />
        </mxCell>
        <mxCell id="sQsE81p7CudlIg1sm5Xv-50" value="" style="endArrow=classic;html=1;rounded=0;fontSize=12;edgeStyle=orthogonalEdgeStyle;exitX=0.5;exitY=1;exitDx=0;exitDy=0;entryX=0.5;entryY=0;entryDx=0;entryDy=0;" edge="1" parent="1" source="sQsE81p7CudlIg1sm5Xv-42" target="sQsE81p7CudlIg1sm5Xv-49">
          <mxGeometry width="50" height="50" relative="1" as="geometry">
            <mxPoint x="630" y="330" as="sourcePoint" />
            <mxPoint x="680" y="280" as="targetPoint" />
          </mxGeometry>
        </mxCell>
        <mxCell id="sQsE81p7CudlIg1sm5Xv-51" value="CAC=TOTP(K&lt;sub&gt;ID&lt;/sub&gt;,T&lt;sub&gt;c&lt;/sub&gt;)" style="rounded=0;whiteSpace=wrap;html=1;fontSize=12;" vertex="1" parent="1">
          <mxGeometry x="605" y="410" width="120" height="37.5" as="geometry" />
        </mxCell>
        <mxCell id="sQsE81p7CudlIg1sm5Xv-52" value="" style="endArrow=classic;html=1;rounded=0;fontSize=12;edgeStyle=orthogonalEdgeStyle;exitX=0.5;exitY=1;exitDx=0;exitDy=0;entryX=0.5;entryY=0;entryDx=0;entryDy=0;" edge="1" parent="1" source="sQsE81p7CudlIg1sm5Xv-49" target="sQsE81p7CudlIg1sm5Xv-51">
          <mxGeometry width="50" height="50" relative="1" as="geometry">
            <mxPoint x="630" y="330" as="sourcePoint" />
            <mxPoint x="680" y="280" as="targetPoint" />
          </mxGeometry>
        </mxCell>
        <mxCell id="sQsE81p7CudlIg1sm5Xv-53" value="XOR&amp;nbsp;&amp;nbsp;" style="triangle;whiteSpace=wrap;html=1;fontSize=12;" vertex="1" parent="1">
          <mxGeometry x="770" y="406.25" width="40" height="45" as="geometry" />
        </mxCell>
        <mxCell id="sQsE81p7CudlIg1sm5Xv-54" value="Salt" style="ellipse;whiteSpace=wrap;html=1;aspect=fixed;fontSize=12;" vertex="1" parent="1">
          <mxGeometry x="747.5" y="347.5" width="42.5" height="42.5" as="geometry" />
        </mxCell>
        <mxCell id="sQsE81p7CudlIg1sm5Xv-55" value="" style="endArrow=classic;html=1;rounded=0;fontSize=12;edgeStyle=orthogonalEdgeStyle;exitX=0.5;exitY=1;exitDx=0;exitDy=0;" edge="1" parent="1" source="sQsE81p7CudlIg1sm5Xv-54">
          <mxGeometry width="50" height="50" relative="1" as="geometry">
            <mxPoint x="630" y="330" as="sourcePoint" />
            <mxPoint x="769" y="410" as="targetPoint" />
          </mxGeometry>
        </mxCell>
        <mxCell id="sQsE81p7CudlIg1sm5Xv-56" value="" style="endArrow=classic;html=1;rounded=0;fontSize=12;edgeStyle=orthogonalEdgeStyle;exitX=1;exitY=0.5;exitDx=0;exitDy=0;entryX=0;entryY=0.5;entryDx=0;entryDy=0;" edge="1" parent="1" source="sQsE81p7CudlIg1sm5Xv-51" target="sQsE81p7CudlIg1sm5Xv-53">
          <mxGeometry width="50" height="50" relative="1" as="geometry">
            <mxPoint x="630" y="330" as="sourcePoint" />
            <mxPoint x="680" y="280" as="targetPoint" />
          </mxGeometry>
        </mxCell>
        <mxCell id="sQsE81p7CudlIg1sm5Xv-57" value="SAC==CAC?" style="rhombus;whiteSpace=wrap;html=1;fontSize=12;" vertex="1" parent="1">
          <mxGeometry x="716.25" y="490" width="105" height="60" as="geometry" />
        </mxCell>
        <mxCell id="sQsE81p7CudlIg1sm5Xv-58" value="" style="endArrow=classic;html=1;rounded=0;fontSize=12;edgeStyle=orthogonalEdgeStyle;exitX=1;exitY=0.5;exitDx=0;exitDy=0;entryX=0.5;entryY=0;entryDx=0;entryDy=0;" edge="1" parent="1" source="sQsE81p7CudlIg1sm5Xv-53" target="sQsE81p7CudlIg1sm5Xv-57">
          <mxGeometry width="50" height="50" relative="1" as="geometry">
            <mxPoint x="630" y="500" as="sourcePoint" />
            <mxPoint x="680" y="450" as="targetPoint" />
            <Array as="points">
              <mxPoint x="840" y="429" />
              <mxPoint x="840" y="471" />
              <mxPoint x="769" y="471" />
            </Array>
          </mxGeometry>
        </mxCell>
        <mxCell id="sQsE81p7CudlIg1sm5Xv-59" value="CAC" style="text;html=1;strokeColor=none;fillColor=none;align=center;verticalAlign=middle;whiteSpace=wrap;rounded=0;fontSize=12;" vertex="1" parent="1">
          <mxGeometry x="790" y="430" width="60" height="40" as="geometry" />
        </mxCell>
        <mxCell id="sQsE81p7CudlIg1sm5Xv-60" value="HM=H&lt;sub&gt;1&lt;/sub&gt;(K&lt;sub&gt;ID&lt;/sub&gt;,Sensory Data)" style="rounded=0;whiteSpace=wrap;html=1;fontSize=12;" vertex="1" parent="1">
          <mxGeometry x="587.5" y="560" width="150" height="35" as="geometry" />
        </mxCell>
        <mxCell id="sQsE81p7CudlIg1sm5Xv-61" value="Send(HM+ Sensory Data)" style="rounded=0;whiteSpace=wrap;html=1;fontSize=12;" vertex="1" parent="1">
          <mxGeometry x="587.5" y="620" width="150" height="30" as="geometry" />
        </mxCell>
        <mxCell id="sQsE81p7CudlIg1sm5Xv-62" value="" style="endArrow=classic;html=1;rounded=0;fontSize=12;edgeStyle=orthogonalEdgeStyle;exitX=0.5;exitY=1;exitDx=0;exitDy=0;entryX=0.5;entryY=0;entryDx=0;entryDy=0;" edge="1" parent="1" source="sQsE81p7CudlIg1sm5Xv-60" target="sQsE81p7CudlIg1sm5Xv-61">
          <mxGeometry width="50" height="50" relative="1" as="geometry">
            <mxPoint x="725" y="730" as="sourcePoint" />
            <mxPoint x="775" y="680" as="targetPoint" />
          </mxGeometry>
        </mxCell>
        <mxCell id="sQsE81p7CudlIg1sm5Xv-63" value="" style="endArrow=classic;html=1;rounded=0;fontSize=12;edgeStyle=orthogonalEdgeStyle;exitX=0;exitY=0.5;exitDx=0;exitDy=0;entryX=0.5;entryY=0;entryDx=0;entryDy=0;" edge="1" parent="1" source="sQsE81p7CudlIg1sm5Xv-57" target="sQsE81p7CudlIg1sm5Xv-60">
          <mxGeometry width="50" height="50" relative="1" as="geometry">
            <mxPoint x="630" y="570" as="sourcePoint" />
            <mxPoint x="680" y="520" as="targetPoint" />
          </mxGeometry>
        </mxCell>
        <mxCell id="sQsE81p7CudlIg1sm5Xv-64" value="True" style="text;html=1;strokeColor=none;fillColor=none;align=center;verticalAlign=middle;whiteSpace=wrap;rounded=0;fontSize=12;" vertex="1" parent="1">
          <mxGeometry x="665" y="490" width="60" height="30" as="geometry" />
        </mxCell>
        <mxCell id="sQsE81p7CudlIg1sm5Xv-65" value="END" style="shape=process;whiteSpace=wrap;html=1;backgroundOutline=1;fontSize=12;" vertex="1" parent="1">
          <mxGeometry x="885" y="505" width="90" height="30" as="geometry" />
        </mxCell>
        <mxCell id="sQsE81p7CudlIg1sm5Xv-66" value="" style="endArrow=classic;html=1;rounded=0;fontSize=12;edgeStyle=orthogonalEdgeStyle;exitX=1;exitY=0.5;exitDx=0;exitDy=0;entryX=0.5;entryY=1;entryDx=0;entryDy=0;" edge="1" parent="1" source="sQsE81p7CudlIg1sm5Xv-61" target="sQsE81p7CudlIg1sm5Xv-65">
          <mxGeometry width="50" height="50" relative="1" as="geometry">
            <mxPoint x="740" y="570" as="sourcePoint" />
            <mxPoint x="790" y="520" as="targetPoint" />
          </mxGeometry>
        </mxCell>
        <mxCell id="sQsE81p7CudlIg1sm5Xv-67" value="" style="endArrow=classic;html=1;rounded=0;fontSize=12;edgeStyle=orthogonalEdgeStyle;entryX=0;entryY=0.5;entryDx=0;entryDy=0;exitX=1;exitY=0.5;exitDx=0;exitDy=0;" edge="1" parent="1" source="sQsE81p7CudlIg1sm5Xv-57" target="sQsE81p7CudlIg1sm5Xv-65">
          <mxGeometry width="50" height="50" relative="1" as="geometry">
            <mxPoint x="830" y="520" as="sourcePoint" />
            <mxPoint x="790" y="520" as="targetPoint" />
          </mxGeometry>
        </mxCell>
        <mxCell id="sQsE81p7CudlIg1sm5Xv-68" value="" style="endArrow=classic;html=1;rounded=0;fontSize=12;edgeStyle=orthogonalEdgeStyle;exitX=1;exitY=0.5;exitDx=0;exitDy=0;entryX=0.5;entryY=0;entryDx=0;entryDy=0;" edge="1" parent="1" source="sQsE81p7CudlIg1sm5Xv-45" target="sQsE81p7CudlIg1sm5Xv-65">
          <mxGeometry width="50" height="50" relative="1" as="geometry">
            <mxPoint x="740" y="480" as="sourcePoint" />
            <mxPoint x="790" y="430" as="targetPoint" />
          </mxGeometry>
        </mxCell>
        <mxCell id="sQsE81p7CudlIg1sm5Xv-69" value="False" style="text;html=1;strokeColor=none;fillColor=none;align=center;verticalAlign=middle;whiteSpace=wrap;rounded=0;fontSize=12;" vertex="1" parent="1">
          <mxGeometry x="820" y="490" width="60" height="30" as="geometry" />
        </mxCell>
        <mxCell id="sQsE81p7CudlIg1sm5Xv-71" value="&lt;font style=&quot;font-size: 16px&quot;&gt;IoT Sink Device&lt;/font&gt;" style="text;html=1;strokeColor=none;fillColor=none;align=center;verticalAlign=middle;whiteSpace=wrap;rounded=0;fontSize=12;" vertex="1" parent="1">
          <mxGeometry x="718.75" y="80" width="122.5" height="30" as="geometry" />
        </mxCell>
        <mxCell id="sQsE81p7CudlIg1sm5Xv-72" value="" style="shape=flexArrow;endArrow=classic;startArrow=classic;html=1;rounded=0;fontSize=16;edgeStyle=orthogonalEdgeStyle;width=21.42857142857143;startSize=7.614285714285715;startWidth=25.10204081632653;exitX=1.007;exitY=0.78;exitDx=0;exitDy=0;exitPerimeter=0;entryX=0.003;entryY=0.78;entryDx=0;entryDy=0;entryPerimeter=0;" edge="1" parent="1" source="sQsE81p7CudlIg1sm5Xv-32" target="sQsE81p7CudlIg1sm5Xv-70">
          <mxGeometry width="100" height="100" relative="1" as="geometry">
            <mxPoint x="490" y="560" as="sourcePoint" />
            <mxPoint x="530" y="563" as="targetPoint" />
          </mxGeometry>
        </mxCell>
      </root>
    </mxGraphModel>
  </diagram>
</mxfile>
